<svg width="17" height="18" viewBox="0 0 17 18" fill="none" xmlns="http://www.w3.org/2000/svg">
<path d="M2 9.00008C2 6.01475 2 4.52141 2.92733 3.59408C3.85467 2.66675 5.34733 2.66675 8.33333 2.66675C11.3187 2.66675 12.812 2.66675 13.7393 3.59408C14.6667 4.52141 14.6667 6.01408 14.6667 9.00008C14.6667 11.9854 14.6667 13.4787 13.7393 14.4061C12.812 15.3334 11.3193 15.3334 8.33333 15.3334C5.348 15.3334 3.85467 15.3334 2.92733 14.4061C2 13.4787 2 11.9861 2 9.00008Z" stroke="#741B7B" stroke-width="1.5" stroke-linecap="round" stroke-linejoin="round"/>
<path d="M12.0054 5.3335H11.9987M11.3334 9.00016C11.3334 9.79581 11.0173 10.5589 10.4547 11.1215C9.89208 11.6841 9.12902 12.0002 8.33337 12.0002C7.53772 12.0002 6.77466 11.6841 6.21205 11.1215C5.64944 10.5589 5.33337 9.79581 5.33337 9.00016C5.33337 8.20451 5.64944 7.44145 6.21205 6.87884C6.77466 6.31623 7.53772 6.00016 8.33337 6.00016C9.12902 6.00016 9.89208 6.31623 10.4547 6.87884C11.0173 7.44145 11.3334 8.20451 11.3334 9.00016Z" stroke="#741B7B" stroke-width="1.5" stroke-linecap="round" stroke-linejoin="round"/>
</svg>
