<svg width="19" height="19" viewBox="0 0 19 19" fill="none" xmlns="http://www.w3.org/2000/svg">
<path d="M18.875 14.1042V17.7875C18.8751 18.0512 18.7752 18.3052 18.5954 18.4981C18.4156 18.6911 18.1693 18.8086 17.9062 18.8271C17.4514 18.859 17.0799 18.875 16.7917 18.875C7.58646 18.875 0.125 11.4135 0.125 2.20833C0.125 1.92083 0.140972 1.54931 0.172917 1.09375C0.191377 0.830671 0.308939 0.584386 0.501879 0.404592C0.694819 0.224799 0.948774 0.124881 1.2125 0.125H4.89583C5.02504 0.124869 5.14968 0.17277 5.24555 0.259396C5.34142 0.346023 5.40166 0.465191 5.41458 0.59375C5.43819 0.832639 5.46042 1.02431 5.48125 1.16875C5.68825 2.61347 6.11249 4.01858 6.73958 5.33646C6.83854 5.54479 6.77396 5.79375 6.58646 5.92708L4.33854 7.53333C5.71324 10.7357 8.26534 13.2878 11.4677 14.6625L13.0719 12.4187C13.1372 12.3268 13.2328 12.2607 13.342 12.2324C13.4512 12.204 13.5669 12.215 13.6688 12.2635C14.9865 12.8895 16.3912 13.3126 17.8354 13.5187C17.9799 13.5396 18.1708 13.5618 18.4083 13.5854C18.5367 13.5986 18.6556 13.6589 18.742 13.7548C18.8284 13.8506 18.8752 13.9751 18.875 14.1042Z" fill="white"/>
</svg>
